<svg width="512" height="512" viewBox="0 0 512 512" fill="none" xmlns="http://www.w3.org/2000/svg">
<path d="M383.4 506.5H129.6C63.2 506.5 9 452.3 9 386V127.1C9 60.8 63.2 6.5 129.6 6.5H383.5C449.8 6.5 504 60.8 504 127.1V386C504 452.3 449.8 506.5 383.4 506.5Z" fill="url(#paint0_linear_269_26)"/>
<path d="M152.15 120.61C131.73 125.2 121.51 137.73 117.43 163C116.14 171.67 113.34 181.89 111.3 186C103.13 201.33 82.96 214.85 67.87 214.85C54.83 214.85 37.74 225.06 31.1 236.81C18.06 259.53 26.76 290.7 48.98 301.42C78.61 315.72 108.24 297.59 113.33 262.08C115.62 244.96 121 234.49 132.5 224.03C150.13 207.94 167.76 207.19 188.68 220.95C199.93 228.36 211.68 249.8 211.68 262.58C211.68 289.92 238.23 310.59 266.61 305.22C280.15 302.67 297.5 285.55 299.57 272.79C300.33 267.67 301.61 259.5 302.37 254.91C304.16 243.66 314.88 227.57 325.09 220.44C344.51 207.15 362.89 208.18 380.27 224.02C391.77 234.48 397.11 244.95 399.44 262.07C401.99 280.7 411.19 295.03 424.48 301.41C438.78 308.29 450.78 308.29 464.83 300.91C495.72 284.57 495.72 237.06 464.83 220.72C458.7 217.39 449.75 214.84 444.91 214.84C429.83 214.84 409.65 201.3 401.48 185.99C399.44 181.9 396.64 171.69 395.35 162.99C390.76 134.39 375.18 119.82 349.38 119.82C328.17 119.82 310.82 134.9 307.49 155.83C303.4 182.64 295.99 195.93 280.4 206.39C256.64 221.98 228.05 212.52 213.75 184.43C209.66 176.76 206.59 166.55 206.59 161.96C206.59 153.03 201.22 140.25 194.08 132.08C185.11 121.87 167.99 117.03 152.15 120.61Z" fill="#1F4842"/>
<path d="M137.6 309.09C132.76 311.64 125.34 318.02 121.01 323.14C114.38 331.56 113.34 334.89 113.34 348.69C113.34 377.03 129.93 393.65 158.81 393.65C174.65 393.65 186.4 387.27 195.58 373.48C203.5 361.73 203.5 340.02 195.58 326.22C184.86 307.04 156.77 298.62 137.6 309.09Z" fill="#1F4842"/>
<path d="M334.78 309.59C318.44 317.76 310.27 333.09 311.78 353.02C313.07 369.86 317.91 378.57 331.95 388.02C343.95 396.19 369.75 395.18 382.51 386.23C398.85 374.48 405.23 347.92 396.05 330.05C384.58 307.29 357.25 298.12 334.78 309.59Z" fill="#1F4842"/>
<defs>
<linearGradient id="paint0_linear_269_26" x1="9" y1="7" x2="504" y2="507" gradientUnits="userSpaceOnUse">
<stop offset="0.37262" stop-color="#DBF7CC"/>
</linearGradient>
</defs>
</svg>
