<svg viewBox="0 0 935 1210" version="1.1" xmlns="http://www.w3.org/2000/svg">
<defs>
<clipPath id="c0"><path d="M601.8 228.3v-1.7H868.9v1.7Z"/></clipPath>
<clipPath id="c1"><path d="M42.1 337.2v-1.8H892.9v1.8Z"/></clipPath>
<clipPath id="c2"><path d="M56.3 543.2v-1.8H292.9v1.8Z"/></clipPath>
<clipPath id="c3"><path d="M292.3 543.2v-1.8h158v1.8Z"/></clipPath>
<clipPath id="c4"><path d="M484 543.2v-1.8H721.1v1.8Z"/></clipPath>
<clipPath id="c5"><path d="M720.4 543.2v-1.8H878.7v1.8Z"/></clipPath>
<clipPath id="c6"><path d="M-11.7 1155.3V22.6H946.8V1155.3Z"/></clipPath>
<style>
.g0{fill:#C4CBD4;}
.g1{fill:#EDFCF1;}
.g2{fill:#5FD068;}
.g3{fill:none;stroke:#C4CBD4;stroke-width:2.291;stroke-linejoin:bevel;stroke-dasharray:3,2;}
.g4{fill:#D2D5DF;}
.g5{fill:#F8F8FB;}
</style>
</defs>
<image preserveAspectRatio="none" x="486" y="1170" width="53" height="17" href="img/1.png"/>
<path d="M42.4 107.7H892.6v1.2H42.4Z" class="g0"/>
<path d="M581.4 129.4c2.2-2.2 5.2-3.4 8.3-3.4H881.1c3.1 0 6.1 1.3 8.3 3.5l-1 .7c-1.9-2-4.6-3.1-7.4-3H589.5c-2.8 0-5.4 1.1-7.4 3.1Z" class="g0"/>
<path d="M889.2 312.9c-2.2 2.2-5.2 3.4-8.3 3.4H589.5c-3.1 0-6.1-1.3-8.2-3.5l.9-.7c2 2 4.7 3.1 7.5 3H881.1c2.8 0 5.5-1.1 7.5-3.1Z" class="g0"/>
<path d="M581.4 312.9c-2.2-2.2-3.4-5.2-3.3-8.3V137.5c0-3.1 1.2-6.1 3.5-8.3l.6 1c-1.9 2-3 4.7-3 7.5V304.8c0 2.8 1.2 5.5 3.2 7.4Z" class="g0"/>
<path d="M889.2 129.4c2.2 2.2 3.5 5.2 3.4 8.3V304.8c0 3.1-1.3 6.1-3.5 8.2l-.7-.9c2-2 3.1-4.7 3.1-7.5V137.5c0-2.8-1.2-5.5-3.2-7.4Z" class="g0"/>
<path d="M880 127.2H590.9c-.1 0-.2 0-.2 0c-3.1 0-6 1.2-8.1 3.3c-2.2 2.2-3.4 5.1-3.4 8.1v88.3H891.5V138.8c0-3.1-1.2-6.1-3.4-8.3c-2.1-2.1-5.1-3.3-8.1-3.3Z" class="g1"/>
<path d="M605.6 204c-1 0-1.8-.4-2.5-1.1c-.6-.6-1-1.5-1-2.4v-47c0-.9 .4-1.8 1.1-2.4c.6-.7 1.5-1 2.4-1V204Z" class="g2"/>
<path clip-path="url(#c0)" d="M602.1 227.4H868.5" class="g3"/>
<path clip-path="url(#c1)" d="M42.4 336.3H892.6" class="g3"/>
<path d="M42.3 499c2.2-2.2 5.2-3.4 8.3-3.3h834c3.1 0 6.1 1.3 8.2 3.5l-.9 .7c-2-2-4.7-3.1-7.5-3.1H50.4c-2.8 0-5.5 1.2-7.4 3.2Z" class="g4"/>
<path d="M892.7 736.6c-2.2 2.2-5.2 3.4-8.3 3.4H50.4c-3.1 0-6.1-1.3-8.2-3.5l.9-.7c2 2 4.7 3.1 7.5 3h834c2.8 0 5.5-1.1 7.4-3.1Z" class="g4"/>
<path d="M42.3 736.6c-2.2-2.2-3.4-5.2-3.3-8.3V507.1c0-3.1 1.2-6 3.5-8.2l.6 1c-2 1.9-3 4.6-3 7.4V728.5c0 2.8 1.1 5.5 3.2 7.4Z" class="g4"/>
<path d="M892.7 499c2.2 2.2 3.4 5.2 3.3 8.3V728.5c0 3.1-1.2 6.1-3.5 8.3l-.6-1c2-2 3-4.7 3-7.5V507.1c0-2.8-1.1-5.4-3.2-7.4Z" class="g4"/>
<path clip-path="url(#c2)" d="M292.6 542.3H56.6" class="g3"/>
<path clip-path="url(#c3)" d="M450 542.3H292.6" class="g3"/>
<path clip-path="url(#c4)" d="M720.7 542.3H484.3" class="g3"/>
<path clip-path="url(#c5)" d="M878.3 542.3H720.7" class="g3"/>
<path d="M40.1 699.6v29.9c0 2.4 .9 4.8 2.6 6.5c1.7 1.8 4.1 2.8 6.6 2.8h7.4V699.6Z" class="g5"/>
<path d="M56.7 699.6v39.2H292.9V699.6Z" class="g5"/>
<path d="M292.9 699.6v39.2H450.5V699.6Z" class="g5"/>
<path d="M450.5 699.6v39.2h34.4V699.6Z" class="g5"/>
<path d="M484.9 699.6v39.2h236V699.6Z" class="g5"/>
<path d="M720.9 699.6v39.2H878.3V699.6Z" class="g5"/>
<path d="M878.3 699.6v39.2h7.3c0 0 .1 0 .1 0c2.4 0 4.7-.9 6.4-2.5c1.8-1.8 2.8-4.1 2.8-6.6V699.6Z" class="g5"/>
<path d="M42.3 777.7c2.2-2.2 5.2-3.4 8.3-3.3h834c3.1 0 6.1 1.2 8.2 3.5l-.9 .6c-2-2-4.7-3-7.5-3H50.4c-2.8 0-5.5 1.1-7.4 3.1Z" class="g4"/>
<path d="M892.7 831.8c-2.2 2.2-5.2 3.4-8.3 3.3H50.4c-3.1 0-6.1-1.2-8.2-3.5l.9-.6c2 2 4.7 3 7.5 3h834c2.8 0 5.5-1.1 7.4-3.1Z" class="g4"/>
<path d="M42.3 831.8c-2.2-2.2-3.4-5.2-3.3-8.3V785.8c0-3.1 1.2-6.1 3.5-8.2l.6 .9c-2 2-3 4.7-3 7.5v37.7c0 2.8 1.1 5.5 3.2 7.4Z" class="g4"/>
<path d="M892.7 777.7c2.2 2.2 3.4 5.2 3.3 8.3v37.7c0 3.1-1.2 6.1-3.5 8.2l-.6-.9c2-2 3-4.7 3-7.5V785.8c0-2.8-1.1-5.5-3.2-7.4Z" class="g4"/>
<path d="M766.7 775.5V834H885.6c0 0 .1 0 .1 0c2.4 0 4.7-.9 6.4-2.6c1.8-1.7 2.8-4.1 2.8-6.6v-40c0-2.4-.9-4.8-2.6-6.5c-1.7-1.8-4.1-2.8-6.6-2.8Z" class="g1"/>
<path d="M892.6 898H42.4v-1.1H892.6Z" class="g4"/>
<image clip-path="url(#c6)" preserveAspectRatio="none" x="54" y="61" width="86" height="11" href="./2.png"/>
</svg>